<?xml version="1.0" encoding="UTF-8"?>
<svg id="Camada_1" data-name="Camada 1" xmlns="http://www.w3.org/2000/svg" viewBox="0 0 1080 1080">
  <defs>
    <style>
      .cls-1 {
        fill: #ea7f25;
      }

      .cls-2 {
        fill: #e6b796;
      }

      .cls-3 {
        fill: #fde0bd;
      }

      .cls-4 {
        fill: #da6d1c;
      }
    </style>
  </defs>
  <g>
    <path class="cls-3" d="m747.54,580.54s-515.44-39.77-507.44,34.5c0,0-26.67,181.34,36.91,290.5,94.59,162.55,463.09,189.8,554.82-113.51,18.25-60.29,4.04-221.97-84.29-211.49Z"/>
    <path class="cls-3" d="m647.9,654.88c0,37.23,30.65,67.45,68.48,67.45h.6c37.83,0,68.51-30.22,68.51-67.45V122.45c.02-37.23-30.68-67.45-68.51-67.45h-.6c-37.83,0-68.48,30.22-68.48,67.45v532.43Z"/>
    <path class="cls-2" d="m685.57,707.08h.7c37.8,0,68.21-30.68,68.21-67.98V106.65c0-20.21-9.07-38.36-23.36-50.71,31.04,6.39,54.4,33.5,54.4,66.02v532.45c0,37.26-30.47,67.92-68.3,67.92h-.63c-17.27,0-33.06-6.29-45.06-16.7,4.48.95,9.21,1.45,14.05,1.45Z"/>
    <path class="cls-3" d="m240.1,508.46c0-38.1,30.54-68.97,68.21-68.97h1.13c37.67,0,68.17,30.85,68.17,68.97v106.59c0,38.07-30.51,68.97-68.17,68.97h-1.13c-37.67,0-68.21-30.88-68.21-68.97v-106.59Z"/>
    <path class="cls-3" d="m376.03,446.64c0-38.06,30.54-68.93,68.24-68.93h1.07c37.7,0,68.27,30.88,68.27,68.93v106.6c0,38.07-30.57,68.98-68.27,68.98h-1.07c-37.7,0-68.24-30.89-68.24-68.98v-106.6Z"/>
    <path class="cls-3" d="m513.61,438.92c0-38.06,30.51-68.93,68.21-68.93h1.13c37.64,0,68.21,30.88,68.21,68.93v106.6c0,38.07-30.57,68.98-68.21,68.98h-1.13c-37.7,0-68.21-30.89-68.21-68.98v-106.6Z"/>
    <path class="cls-2" d="m288.96,658.42h.92c37.64,0,67.22-30.44,67.22-68.5v-106.67c0-10.3-2.28-20.05-6.26-28.79,16.3,12.59,26.77,32.43,26.77,54.82v106.65c0,38.07-29.49,68.08-67.19,68.08h-.82c-27.53,0-51.22-16.26-62.02-39.98,11.53,8.86,25.8,14.39,41.37,14.39Z"/>
    <path class="cls-2" d="m424.56,596.61h.86c37.7,0,67.61-29.94,67.61-68.04v-106.67c0-10.27-2.21-20.01-6.22-28.79,16.3,12.59,26.8,32.46,26.8,54.82v106.67c0,38.07-29.94,67.62-67.58,67.62h-.89c-27.5,0-51.18-16.25-61.98-39.96,11.48,8.86,25.83,14.36,41.4,14.36Z"/>
    <path class="cls-2" d="m561.86,588.9h.82c37.7,0,67.88-29.94,67.88-68.05v-106.67c0-10.27-2.28-20.01-6.19-28.79,16.26,12.59,26.77,32.46,26.77,54.82v106.67c0,38.07-30.18,67.62-67.82,67.62h-.89c-27.5,0-51.22-16.25-62.02-39.96,11.53,8.88,25.87,14.36,41.43,14.36Z"/>
    <path class="cls-2" d="m685.62,682.62c-77.66-37.8-253.15,26.69-218.86,188.73,0-168.37,151.8-196.73,218.86-188.73Z"/>
    <path class="cls-2" d="m656.08,515.93c-55.79-33.24-66.93,19.17-161.78,21.97-41.53,1.21-60.03,87.23,2.86,118.39,87.56,43.34,94.43-18.01,115.7,5.88,22.68,25.43,44.07,30.41,63.2,59.86,13.9,21.37,122.48-11.59,133.94-55.48,22.07-84.23-65.39-97.89-153.92-150.62Z"/>
    <path class="cls-3" d="m663.24,530.59c-57.97-34.58-69.55,19.93-168.28,22.88-43.23,1.24-62.44,90.73,3.06,123.14,91.05,45.09,98.15-18.75,120.31,6.16,23.65,26.43,45.85,31.61,65.7,62.27,14.47,22.26-24.02,106.36-24.02,106.36,0,0,111.61,78.68,134.39,33.84,42.31-83.26,30.3-148.91,28.99-197.91-3.07-112.91-67.98-101.87-160.15-156.73Z"/>
    <path class="cls-2" d="m775.36,586.54c61.97,28.44,58.99,189.13,12.84,266.54-114.9,192.51-366.4,189.36-485.69,86.28,110.58,118.26,378.43,129.95,503.25-69.61,50-79.88,65.62-262.95-30.39-283.21Z"/>
    <path class="cls-2" d="m671.36,747.24c4.46,6.87,3.9,19.69.97,34.1,6.63-21.94,11.06-44.78,4.49-54.89-19.88-30.65-31.19-36.97-54.72-63.42-22.25-24.9-29.33,38.95-120.41-6.11-33.64-16.7-44.81-48.44-41.94-75.53-12.76,29.33-6.4,75.05,36.52,96.3,91.05,45.07,98.16-18.79,120.34,6.13,23.62,26.46,34.89,32.79,54.74,63.42Z"/>
  </g>
  <g>
    <path class="cls-1" d="m716.97,55h-.6c-37.83,0-68.48,30.22-68.48,67.45v197.28c0,2.12.13,4.21.32,6.28-.11.2-.32.33-.32.59v47.53c0,.18.03.35.1.52,2.49,6.04,14.33,22.58,10.93,25.27-2.09,1.66-2.31,5.63-2.09,8.05.12,1.36.43,2.75,1.22,3.87,1.15,1.63,4.76,2.97,5.33.23.39-1.86-.06-3.74.82-5.53.72-1.46,2.04-2.47,2.94-3.8.86-1.28,1.42-2.83,2.14-4.19,1.38-2.63-4.61-12.89-1.36-12.96,2.76-.06,5.52.36,8.23.84,7.97,1.4,4.44,4.85,5.38,8.66.71,2.88,6.42,4.2,8.21,1.99,1.1-1.35.27-3.98,2.47-4.62,2.61-.75,9.49-2.09,9.52,2.8.02,3.22.64,7.52,4.33,8.49.23.06.47.1.69.01.16-.06.28-.19.39-.31.61-.64,1.44-1.97,2.27-1.83.62.1,1.51,1.1,1.91,1.56.87,1.04,1.21,2.29,1.19,3.63-.05,3.01-1.23,5.84-.76,8.89.37,2.42,2.8,3.9,5.18,4.02,5.28.25,5.32-10.02,5.74-13.37.31-2.48.46-5.57,1.84-7.74,1.82-2.86,4.26-.06,6.49.51.15.04.31.07.44,0,.11-.06.18-.17.24-.28.92-1.57,1.67-3.11,3.18-4.2,1.79-1.28,4.74,3.26,5.52,4.35,1.47,2.04,2.65,4.26,4.15,6.28,1.73,2.34,5.39,4.44,8.38,4.41,5.67-.04,2.79-25.07,1.83-33.68,18.54-12.07,30.78-32.76,30.78-56.26V122.45c.02-37.23-30.68-67.45-68.51-67.45Z"/>
    <path class="cls-4" d="m731.1,55.94c14.29,12.35,23.36,30.51,23.36,50.71l.24,269.34.67,5.12c.82,3.77,2.33,7.33,5.09,8.05.31.08.64.14.93.02.21-.09.38-.26.53-.43.83-.87,1.95-2.68,3.08-2.49.85.14,2.05,1.49,2.59,2.12,1.18,1.41,1.64,3.1,1.61,4.92-.06,4.09-1.67,7.92-1.04,12.06.51,3.29,3.8,5.3,7.03,5.45,7.17.35,7.22-13.6,7.79-18.15.42-3.37.63-8.62,2.51-11.57V121.96c0-32.53-23.36-59.64-54.4-66.02Z"/>
  </g>
</svg>