<?xml version="1.0" encoding="UTF-8" standalone="no"?>
<svg
   id="Layer_1"
   viewBox="0 0 200 56.643989"
   version="1.1"
   sodipodi:docname="un-women-logo-no-tag-white-en(1).svg"
   width="200"
   height="56.64399"
   xmlns:inkscape="http://www.inkscape.org/namespaces/inkscape"
   xmlns:sodipodi="http://sodipodi.sourceforge.net/DTD/sodipodi-0.dtd"
   xmlns="http://www.w3.org/2000/svg"
   xmlns:svg="http://www.w3.org/2000/svg">
  <sodipodi:namedview
     id="namedview1"
     pagecolor="#ffffff"
     bordercolor="#000000"
     borderopacity="0.25"
     inkscape:showpageshadow="2"
     inkscape:pageopacity="0.0"
     inkscape:pagecheckerboard="0"
     inkscape:deskcolor="#d1d1d1" />
  <defs
     id="defs1">
    <style
       id="style1">.cls-1{fill:#fff;}</style>
  </defs>
  <path
     class="cls-1"
     d="m 105.93867,26.125015 c -6.901275,0 -11.122443,-3.854887 -11.122443,-11.415766 V 0.02672971 h 5.653533 V 14.561843 c 0,4.183944 2.09198,6.350364 5.54187,6.350364 3.44989,0 5.54335,-2.091972 5.54335,-6.167223 V 0.02672971 h 5.65205 V 14.524619 c 0,7.781244 -4.36708,11.600396 -11.26836,11.600396 z M 138.78934,25.72151 126.34471,9.3877476 V 25.72151 h -5.5776 V 0.02672971 h 5.21132 L 138.01955,15.846805 V 0.02672971 h 5.57909 V 25.72151 h -4.80781 z M 30.209272,56.384911 H 25.291276 L 19.491822,39.573196 13.692368,56.384911 H 8.7743722 L 0,30.511457 h 6.0570416 l 5.3229904,17.395383 5.76223,-17.469831 h 4.845037 l 5.76223,17.469831 5.32299,-17.395383 h 5.909636 z m 21.437877,0.257588 c -7.92865,0 -13.617921,-5.909636 -13.617921,-13.214416 v -0.07296 c 0,-7.303292 5.763719,-13.282908 13.69088,-13.282908 7.92716,0 13.61792,5.906658 13.61792,13.209949 v 0.07445 c 0,7.30478 -5.763718,13.287374 -13.690879,13.287374 z m 7.781244,-13.287374 c 0,-4.404309 -3.229529,-8.073078 -7.781244,-8.073078 -4.551715,0 -7.708285,3.59581 -7.708285,8.000119 v 0.07445 c 0,4.404309 3.231018,8.074566 7.781244,8.074566 4.550225,0 7.708285,-3.597299 7.708285,-8.001608 v -0.07296 z M 87.913462,56.20177 V 39.427279 L 80.683129,50.402317 H 80.537213 L 73.379838,39.537461 V 56.20177 H 67.837973 V 30.511457 h 6.092776 l 6.753869,10.860388 6.75387,-10.860388 h 6.092776 V 56.20177 h -5.616313 z m 9.984888,0 V 30.511457 h 19.38313 v 5.026689 h -13.76682 v 5.20983 h 12.11111 v 5.028179 h -12.11111 v 5.395948 h 13.94996 v 5.028178 H 97.89835 Z m 40.81803,0 -12.44463,-16.333762 V 56.20177 h -5.57909 V 30.511457 h 5.21132 L 137.9451,46.327065 V 30.511457 h 5.5776 V 56.20177 Z M 85.126151,5.6862222 c 2.042837,3.368001 1.618487,8.4959388 -0.844234,11.5319038 -2.723286,3.600277 -7.218421,5.156228 -11.65102,3.930824 -4.032072,-1.054175 -7.318181,-4.904596 -7.691907,-9.069184 -0.503264,-4.4117536 1.547018,-8.4348919 5.278322,-10.6340685 2.876648,-1.76887064 7.307758,-1.9713676 10.305011,-0.2918339 1.819495,0.8844353 3.649412,2.6935075 4.602339,4.5323586 z M 75.888716,0.49872632 c 0.03871,0.40201603 0.03871,0.96781638 0,1.42939038 0.0089,-0.071469 0.0804,-0.071469 0.120605,-0.1012485 0.139961,0.050624 0.139961,0.2188754 0.101248,0.3409692 h -0.03127 c 0.723629,-0.050624 1.418968,0.1295385 2.08155,0.3320355 0.69385,0.090826 1.296874,0.9246368 1.980301,0.4824192 0.192075,0.2099417 0.522621,0.010423 0.622381,0.3409692 0.262055,0.052113 0.402016,0.3141681 0.583667,0.4824192 -0.01936,0.2426986 0.201008,0.3543697 0.282901,0.5330435 V 4.308945 C 81.860888,3.8965064 82.222702,3.5346919 82.624718,3.3232613 81.186394,1.9564067 79.427946,1.0719714 77.505714,0.71909066 76.984582,0.60890849 76.400914,0.63868745 75.888716,0.49872632 Z M 68.598825,3.3441065 69.785517,4.4801741 C 71.272976,3.0344053 73.183297,2.208039 75.284203,2.1365695 75.2038,1.6362829 75.233579,1.0615488 75.263358,0.55083951 72.7113,0.69228959 70.48979,1.6571281 68.598825,3.3455955 Z M 83.437684,0.88138602 84.211937,1.6571281 c 0.783187,1.2060481 1.880542,2.3986957 2.965985,3.1655041 C 86.947135,4.338724 86.896511,3.7759015 86.653812,3.2934823 86.172882,1.9474731 84.673511,1.2953137 83.437684,0.88287497 Z M 67.684611,1.0317698 c -0.954416,0.3826597 -1.989235,0.69385 -2.70393,1.5872189 -0.5524,0.7236289 -0.723629,1.5887078 -1.00504,2.4135852 l 0.844233,-0.7251178 c 1.287941,-0.893369 1.618487,-2.3525383 2.864737,-3.2771752 z m 9.441421,0.3320355 -0.723629,0.3201239 c -0.0804,0.041691 -0.332035,-0.089337 -0.290345,0.1220938 0.138472,0.090826 0.281411,0.1905853 0.451152,0.2099417 0.45264,-0.201008 0.996106,0.1310274 1.377277,-0.2903449 C 77.828816,1.4233632 77.428289,1.4129406 77.126032,1.3623163 Z m 9.238924,0.9246369 c 1.066087,0.7027836 0.996107,2.0011465 1.377277,3.0553219 0.09976,0.4422176 0.372237,0.8442337 0.400527,1.2864513 C 87.571004,4.973016 85.639838,4.7898753 84.937055,3.2235017 l 0.221853,0.9142143 c 0.541977,1.7792932 2.663728,2.2125771 3.467761,3.8221302 C 88.376525,6.7925108 88.817254,5.57604 88.467351,4.4295498 88.175517,3.4438661 87.362551,2.5802761 86.366445,2.2884422 Z M 63.031648,3.8756611 c -0.812966,1.1971144 -0.151873,2.8558028 -0.38266,4.2732815 0.293323,-0.5821787 0.856145,-1.1345785 1.348987,-1.5485062 1.136068,-0.7340515 2.153019,-1.898409 2.191732,-3.2057056 -0.603024,1.5470172 -2.595237,1.7495142 -3.08659,3.39778 h -0.05062 C 63.786544,5.4241673 63.375595,3.4944903 64.770739,2.4790276 64.038177,2.6904582 63.415796,3.2339244 63.031648,3.8756611 Z M 75.86936,2.6904582 c 0.0804,0.5017756 0.05062,1.1047997 0.02084,1.5991305 1.276029,0.019356 2.482077,0.4124387 3.478183,1.1554239 -0.09231,-0.049135 -0.211431,-0.2501433 -0.193563,-0.3826597 h 0.04169 c 0.02085,-0.1801628 -0.251632,-0.259077 -0.162295,-0.4407287 0.242699,0.019356 0.421372,0.3513918 0.5524,0.5345324 0.695339,-0.010423 0.291834,0.8114768 0.814455,1.0631091 0.120604,0.062536 -0.03871,0.3126791 0.151872,0.2933228 0.160807,0.1310274 0.360326,0.2694996 0.330547,0.4839082 0.05956,0.3588365 0.349903,-0.1131601 0.512198,0.1206048 0.142939,0.1116711 -0.09827,0.1801627 -0.06998,0.3126791 0.08934,0.038713 0.17123,-0.090826 0.242699,0.019356 0.02978,0.1220937 -0.06105,0.171229 -0.123583,0.2412096 -0.05956,0.2114306 0.190586,0.090826 0.263544,0.1920743 0.111671,0.2412096 0.201008,0.6030241 0.02085,0.8740126 0.250144,0.2709886 -0.0402,0.5523999 -0.09231,0.8144548 -0.178674,0.171229 -0.209942,0.5732451 -0.550911,0.4824191 -0.0804,0.139962 0.04913,0.300768 -0.03127,0.41095 l 0.604513,0.02978 c -0.340969,-0.483908 0.101248,-0.9439934 0.241209,-1.3772774 0.06998,-0.031268 0.162296,-0.1801627 0.221854,-0.031268 -0.03127,0.201008 -0.04914,0.4213724 -0.07147,0.5851567 0.151873,0.229298 0.09083,0.5524007 0.14145,0.8218997 l 1.548507,-0.02978 c -0.108697,-1.0243961 -0.323105,-2.0100799 -0.7549,-2.8945152 -0.111671,0.040202 -0.24121,0.1206048 -0.361815,0.049135 -0.171229,-0.2322759 -0.312679,-0.5121982 -0.552399,-0.7027836 -0.202497,0 -0.342459,-0.1622953 -0.503265,-0.2620549 C 81.237018,6.6644612 81.368046,6.1507741 81.024099,6.2192657 80.840958,6.1299288 80.712908,6.0405919 80.662284,5.8291612 80.650373,5.5879516 80.631016,5.2856951 80.39874,5.1055324 80.270691,5.0355518 80.150086,5.1233997 80.05926,5.2052919 79.868675,5.3273857 79.789761,5.115955 79.798694,4.9625933 79.585775,4.8032759 79.807628,4.6216242 79.697446,4.4310388 79.396678,4.1898292 79.538128,3.7371889 79.124201,3.5346919 78.461619,3.214568 77.757346,3.0120711 77.023295,2.8631762 76.643613,2.8021294 76.229685,2.7917067 75.867871,2.6919472 Z m 4.605317,0 c -0.08189,0.019356 -0.05211,0.1503838 -0.02233,0.2010081 0.262055,0.020845 0.262055,0.4615739 0.573246,0.2814112 l -0.06998,-0.3097013 c -0.07891,-0.2024969 -0.351392,-0.099759 -0.48093,-0.171229 z M 70.127975,4.8926128 c 0.403505,0.2799222 0.795098,0.7206509 1.125645,1.0839543 1.067576,-1.036308 2.495477,-1.669111 4.033561,-1.6884673 -0.03127,-0.5032646 -0.03127,-1.0467307 0,-1.5514842 -1.952011,0.1533617 -3.700037,0.8576343 -5.157717,2.1545082 z m 12.879403,-1.2075371 -1.055665,1.1360675 -0.16974,0.022334 c 0.139961,0 0.09976,0.1608064 0.190586,0.2188754 0.442217,0.3111901 0.643225,0.7563857 1.016951,1.0869322 0.139961,0.3409692 0.500287,0.5628225 0.500287,0.9841948 0.52411,1.0154627 0.765319,2.2110882 0.824877,3.3769354 0.522621,-0.06105 1.115223,-0.0804 1.619976,-0.06998 l -0.05211,-0.04913 C 85.781288,7.7781945 84.71669,5.5447721 83.007378,3.6850757 Z M 68.289124,3.8577937 68.239989,3.704432 c -1.721225,1.871608 -2.686063,4.231591 -2.81709,6.805983 l 1.640821,0.02084 c -0.05956,-0.525599 0.0804,-1.0273744 0.14145,-1.5365947 0.348414,-1.5187273 1.003551,-2.9555624 2.170886,-4.0826962 z m 20.389658,0.3796818 c 0.742985,1.0869323 0.321613,2.6131042 0.270988,3.8816882 0.02829,0.6149356 0.131028,1.2254044 0.08934,1.8388511 C 88.94977,9.7182941 88.928925,9.4547503 88.869367,9.204607 88.5686,7.8273298 86.948624,7.1528362 86.294976,5.9959234 c 0.101248,0.3945713 0.171229,0.7846758 0.314168,1.1569128 0.562822,1.6303984 2.2498,2.7262643 2.483565,4.4936458 C 89.243093,9.9580148 90.428296,8.6105166 89.986078,6.7716655 89.75678,5.8485176 89.372632,4.941748 88.678782,4.2389645 Z M 62.450958,4.4578399 c -0.582179,0.6953388 -0.975261,1.5276609 -1.177758,2.4120962 -0.390105,1.8507627 0.725117,3.2801529 0.966327,4.9686199 0.323102,-2.1202619 2.555035,-3.4588264 2.674151,-5.6714035 -0.652159,1.1971144 -2.240867,1.8909643 -2.531212,3.3084431 0,0.229298 -0.06998,0.4526402 -0.120605,0.6744934 l -0.05062,-0.05211 0.07891,-0.9142143 C 62.56114,7.5444296 61.606724,5.8559623 62.450958,4.4578399 Z m 12.867491,0.3618144 -0.05062,0.040202 c -1.3877,0.078914 -2.541635,0.6953388 -3.618145,1.5276609 0.412439,0.2724776 0.742985,0.692361 1.137557,1.0556644 0.673004,-0.6432257 1.569351,-1.0258854 2.502922,-1.0556644 -0.03127,-0.4615739 -0.05062,-1.0779985 0.02978,-1.5693515 z m 0.573245,0.022334 c 0.0804,0.4690187 0.05956,1.0229075 0.02978,1.5187273 0.935059,0.068492 1.931166,0.4511513 2.60417,1.064598 C 78.877036,7.0620102 79.26863,6.579591 79.660223,6.3607156 78.555423,5.483725 77.316618,4.9402589 75.891694,4.8419883 Z m -6.171691,0.3811708 v 0.09976 c -1.279006,1.4561914 -1.990724,3.2161283 -2.121751,5.1860069 0.52411,0.01191 1.094377,-0.02085 1.588708,0.02084 l -0.04914,-0.06998 C 69.23758,8.9023468 69.78998,7.4833791 70.856067,6.3592231 70.434694,6.0152761 70.043101,5.6236827 69.721488,5.2231556 Z M 79.993746,6.721041 c -0.464551,0.5419772 -1.066087,1.1152223 -1.518727,1.6378432 0.03276,0.068492 0.111671,0.1503837 0.122094,0.1206048 0.119116,-0.1518728 0.02829,-0.5330435 0.361814,-0.4526403 0.332036,0.1101822 0.62387,0.080403 0.985684,0.1206048 0.201008,0.1101822 0.230787,0.3513918 0.412439,0.4541292 0.08189,0.087848 -0.03127,0.1697401 -0.06998,0.2412096 0.03871,0.040202 0.07891,0.078914 0.09976,0.1191159 0.101248,-0.089337 0.242698,-0.2099417 0.431795,-0.1608064 0.192074,0.011912 0.241209,0.2814112 0.413927,0.3126791 0.0804,0.1012485 -0.05062,0.201008 -0.120604,0.2412097 0.0402,0.1905853 -0.180163,0.2516322 -0.09976,0.4332839 0.09976,0.017867 0.199519,-0.031268 0.239721,-0.1027374 C 81.634567,9.404126 81.3338,9.0423116 81.272753,8.6998535 81.122369,8.3871744 80.799267,8.3276164 80.547635,8.0968295 80.559547,7.995581 80.617616,7.8868877 80.699508,7.8347746 80.690574,7.3940459 80.237934,7.0917894 79.996724,6.7195523 Z m -8.738637,0.049135 c -0.340969,0.4228613 -0.674494,0.8844353 -0.912725,1.3772772 -0.393083,0.7236289 -0.503265,1.555951 -0.65216,2.3823178 l 0.65216,-0.02084 c -0.110183,-0.129539 -0.09083,-0.311191 -0.09083,-0.48242 0.150384,-0.3231018 0.21143,-0.894858 0.692361,-0.8635901 0.232276,-0.050624 -0.01042,-0.230787 0.171229,-0.3216128 C 71.457602,8.7906841 71.548428,8.469071 71.838773,8.3186872 72.111254,8.2859259 72.170812,7.9062441 72.44329,7.8764651 71.980227,7.5548523 71.669037,7.1513473 71.255109,6.770176 Z m 4.666364,0.1920744 0.0402,1.0854433 0.412439,0.1503837 c 0.120605,-0.2129196 0.342458,-0.2620549 0.482419,-0.4422176 0.131028,-0.061047 0.131028,0.1012485 0.190586,0.1518727 0.08189,0.491353 -0.463063,0.7132063 -0.763831,0.9127253 h 0.120605 c 0.31119,-0.3216128 0.491353,0.4020161 0.814455,0.071469 0.06105,-0.4124386 0.644714,-0.3618144 0.774253,-0.7742531 -0.101249,0.09976 -0.150384,-0.010423 -0.24121,-0.040202 0.02829,-0.1414501 0.218876,-0.230787 0.31119,-0.3216128 C 77.41042,7.3523539 76.695725,7.0813653 75.919983,6.9607605 Z m -0.653648,0.031268 c -0.842745,0.1206048 -1.637844,0.431795 -2.240868,1.0839543 0.198031,0.040202 0.402016,0.1206048 0.5524,0.260566 0.05211,0.1012485 -0.08934,0.1116711 -0.09976,0.171229 0.131027,0.1905854 0.139961,-0.040202 0.272477,-0.06998 0.122094,0.1220937 0.230787,0.2114306 0.402016,0.1220937 0.09083,0.1488948 0.230787,0.00744 0.340969,0.020845 0.04169,-0.1220938 0.21292,-0.2218533 0.142939,-0.3633034 0.05807,-0.1101822 0.08934,-0.2903449 0.24121,-0.2903449 -0.09231,0.4719966 0.351392,0 0.482419,0.2203643 C 75.2306,7.8064843 75.331847,7.3359767 75.269317,6.9935186 Z m 15.100913,1.1554238 c 0.279922,1.6289095 -0.702784,2.8558028 -1.107777,4.2717928 -0.220365,0.544955 -0.131028,1.237316 -0.460085,1.710802 -0.02085,-0.272478 0.129538,-0.533044 0.150383,-0.826366 0.250144,-1.818006 -1.328142,-2.894516 -1.688467,-4.4325999 -0.02085,0.4124387 0.0089,0.8040321 0.06998,1.1762699 0.09083,1.919254 1.347499,3.478183 0.985684,5.47784 0.361815,-0.473485 0.632803,-0.954415 1.064598,-1.415989 1.448747,-1.508305 1.820984,-4.032072 0.985684,-5.9617498 z M 60.912874,8.3603733 c -0.522621,1.2060481 -0.494331,2.8051787 -0.101248,4.0603617 0.340969,1.299852 1.578285,2.202155 2.221511,3.3278 -0.110183,-0.470508 -0.08934,-1.063109 -0.01936,-1.547018 0.421373,-1.678044 1.085444,-3.29802 0.984195,-5.1577164 -0.251632,1.3370754 -1.447258,2.2810684 -1.588708,3.6583454 -0.08934,0.564312 0.05062,1.116712 0.120605,1.616998 -0.12805,-0.251632 -0.251632,-0.540488 -0.2695,-0.865079 -0.202497,-1.809072 -1.658688,-3.134236 -1.347498,-5.0951806 z m 14.325172,0.634292 0.02829,0.020845 c 0.03127,0.1503838 0.139961,0.3811708 0,0.4824193 -0.178674,0.2412096 -0.611958,0.1905854 -0.673005,0.5092204 -0.470508,0.144428 -0.290345,0.725118 -0.440729,1.088421 -0.300767,0.06998 -0.192074,-0.291834 -0.332035,-0.413927 l -0.06998,0.09231 c -0.461574,-0.35288 -0.372237,0.403505 -0.652159,0.463063 0.321613,0.06849 0.592601,-0.111671 0.914214,-0.122093 0.01787,0.0402 0.101249,0.06253 0.06998,0.122093 h 0.05062 c 0.06998,-0.06998 0.0804,-0.160806 0.06998,-0.262055 0.02978,-0.101248 0.151872,-0.160806 0.23972,-0.101248 -0.02829,0.101248 0.0402,0.181652 0.122094,0.223342 l -0.171229,0.24121 c -0.09083,0.09827 0.02085,0.372237 -0.211431,0.361814 -0.05062,0.01042 -0.09232,-0.03127 -0.06998,-0.0804 h -0.05063 l 0.120605,0.220364 c 0.142939,-0.01042 0.110182,-0.262054 0.291834,-0.291833 0.162296,-0.03871 0.181652,-0.230787 0.162296,-0.381171 0.209941,-0.183141 0.470507,-0.06998 0.702783,-0.101249 0.05956,0.06105 0.199519,0.08189 0.171229,0.193564 0.08934,0.178673 -0.06254,0.38117 -0.171229,0.531554 0.05062,0.101249 -0.07147,0.181652 -0.07147,0.290345 -0.189097,0.202497 -0.400528,0.111671 -0.65216,0.171229 0.321613,0.218876 0.664071,0.363303 1.085444,0.330547 0.403505,0.03276 0.21143,-0.480931 0.501775,-0.641737 0.171229,-0.02084 0.323102,0.02085 0.513687,-0.03127 0.0804,-0.148895 0.08934,-0.332035 0.120605,-0.501776 -0.172718,-0.08189 -0.110182,-0.253121 -0.120605,-0.393082 -0.102737,-0.122094 -0.09083,-0.340969 -0.291834,-0.361814 -0.0402,-0.111671 0.07892,-0.160807 0.06998,-0.260566 0.302256,-0.111671 -0.160806,-0.291834 0.03127,-0.4630634 -0.342458,-0.059558 -0.422861,-0.6030241 -0.845723,-0.431795 -0.09976,-0.1414501 -0.361814,-0.2039859 -0.361814,-0.4139276 0.02978,-0.1488949 0.372237,-0.089337 0.330546,-0.068492 -0.02084,-0.031268 -0.05956,-0.052113 -0.04913,-0.092315 -0.129538,-0.00893 -0.281411,0 -0.361814,0.071469 z M 70.945408,10.29005 c -0.372237,0.120605 0,0.471997 -0.01936,0.702784 -0.0402,0.192074 -0.232276,0.04169 -0.343947,0.120605 0.05211,0.314168 -0.208452,0.372237 -0.431795,0.433284 -0.07147,0.21143 0.163785,0.31119 0.05211,0.512198 0.270988,0.270988 0.48093,0.603024 0.431795,0.984195 0.192074,0.272477 0.14145,0.684916 0.192074,1.036308 0.159317,0.159317 0.250143,0.402016 0.241209,0.653648 0.0089,0.129538 -0.131027,0.16974 -0.21143,0.220364 -0.101249,0.122094 0.07147,0.06254 0.07147,0.160807 l 1.34601,-1.395145 C 71.803036,13.175632 71.430799,12.450514 71.290838,11.697106 L 71.11812,11.595858 c -0.02978,0.190585 -0.01936,0.463063 -0.190586,0.533043 -0.09083,-0.0804 -0.272477,-0.120604 -0.272477,-0.291833 0.04914,-0.110183 0.14145,-0.04169 0.221853,-0.05063 -0.01191,-0.08934 0.0089,-0.181651 0.01936,-0.262055 0.02978,-0.110182 -0.160806,-0.189096 -0.01936,-0.290345 0.119116,-0.01042 0.171229,0.129539 0.260566,0.192075 l 0.24121,-0.123583 c -0.06998,-0.230787 0.05956,-0.592601 -0.02085,-0.844234 -0.02978,-0.201008 -0.250143,-0.159317 -0.412438,-0.171229 z m 9.892572,0.201008 z m -0.171229,0.501776 0.2695,0.31119 c -0.0074,0.352881 0.473485,0.461574 0.503264,0.824877 0.102738,-0.332035 0.09083,-0.702783 0.193563,-1.034819 -0.31119,-0.03127 -0.702783,0.06998 -0.966327,-0.102737 z m 3.600277,0.02084 0.04914,0.09976 c -0.09083,2.121751 -0.964838,4.06185 -2.32127,5.500174 0.381171,0.34097 0.814455,0.784676 1.167335,1.153935 1.335587,-1.536594 2.25129,-3.266752 2.572903,-5.226208 0.110182,-0.503264 0.07891,-1.046731 0.220364,-1.527661 -0.491353,0.139961 -1.07502,0.04913 -1.616997,0.08189 l -0.06998,-0.08189 z m -2.071127,0.02829 c 0.05807,0.202497 -0.06105,0.393083 -0.05062,0.604513 -0.21292,0.352881 0.269499,0.442218 0.138472,0.772764 -0.08785,0.07147 -0.180163,0.06105 -0.290345,0.02085 -0.251632,0.987172 -0.744474,1.889475 -1.448747,2.674151 h -0.06849 c 0.178673,0.111671 0.309701,0.361814 0.512198,0.412438 v -0.13996 c 0.0402,-0.03127 0.05956,-0.101248 0.120605,-0.07147 0.391593,0.122093 0.421372,0.662582 0.45264,0.914214 1.024396,-1.075021 1.658688,-2.352538 1.978812,-3.740238 0.11316,-0.464552 0.05062,-1.025885 0.24121,-1.427902 -0.522621,0.03127 -1.094377,0.06105 -1.587219,-0.02084 z m -12.525033,0.02084 c 0.108693,0.364793 0.229298,0.754897 0.138472,1.158402 0,-0.181651 0.391594,-0.363303 0.0804,-0.522621 0.120605,-0.18314 0.02978,-0.564311 0.260566,-0.585156 -0.178673,0.0402 -0.320124,0.0402 -0.479441,-0.05063 z m -4.224146,0.05063 c 0.110182,2.565458 1.057153,4.806325 2.724775,6.706223 0.372237,-0.391594 0.784676,-0.833811 1.186692,-1.155424 -0.202497,-0.131028 -0.330547,-0.363304 -0.531555,-0.531555 -0.251632,-0.05211 -0.422861,-0.291834 -0.483908,-0.504753 0.01042,0.02978 -0.02978,0.05062 -0.05062,0.06849 -0.230787,0.11316 -0.300768,-0.16974 -0.45264,-0.257588 -0.138473,-0.07147 -0.02978,-0.393082 -0.270989,-0.272477 -0.139961,-0.230787 -0.400527,-0.21292 -0.501776,-0.48093 l -0.101248,0.168251 c -0.181652,-0.0089 -0.309701,-0.232276 -0.412439,-0.342458 -0.370748,0.110182 -0.221853,-0.402016 -0.433284,-0.571756 -0.0804,-0.321613 0.02085,-0.62387 0.190586,-0.875502 0.111671,-0.09976 0.321613,-0.02085 0.363303,0.04913 0.193563,0.06998 0.06998,-0.150384 0.172718,-0.190585 0.270989,-0.230787 0.400527,0.09231 0.550911,0.262055 -0.221853,-0.643226 -0.361814,-1.398123 -0.330547,-2.088995 -0.513687,0.06998 -1.095865,0.04914 -1.619975,0.01787 z m 2.120262,-0.01787 0.05211,0.06998 c 0.04914,0.723629 0.253121,1.427901 0.309701,2.120262 0.09083,-0.06105 0.03127,-0.220364 0.150384,-0.220364 0.04169,-0.33948 0.09083,-0.734052 0.31119,-1.037797 0.321613,-0.0089 0.333525,-0.442218 0.674494,-0.409461 0.0804,0.05807 0.192074,0.139961 0.220364,0.239721 -0.171229,-0.201008 -0.180162,-0.521132 -0.09976,-0.762342 -0.503265,0.06998 -1.106289,0.06998 -1.619976,0 z m 4.373041,0.643226 0.09083,0.150384 c 0.120605,0.501775 0.422861,0.924637 0.674494,1.378766 l 0.461574,-0.483908 c -0.01042,-0.05807 0.01936,-0.131028 -0.01936,-0.16974 -0.09231,-0.120605 -0.03127,-0.343948 -0.150384,-0.412439 -0.0402,0.110182 0.08934,0.171229 0.02829,0.260566 -0.150383,-0.06254 -0.31119,-0.131028 -0.391593,-0.31119 0.02978,-0.232276 -0.139961,-0.06105 -0.263544,-0.16974 -0.0074,-0.251633 -0.320124,-0.09083 -0.431795,-0.242699 z m 1.689956,0.412439 c -0.03127,0.14145 -0.14145,0.250143 -0.221853,0.363303 0.14145,-0.06105 0.221853,-0.272478 0.381171,-0.263544 z m 13.871043,0.190585 c -0.954416,2.062193 -0.260566,4.795902 -1.424924,6.756847 l 0.190586,-0.160806 c 2.261712,-1.235827 4.984998,-3.318866 4.532358,-6.35632 -0.03871,0.413927 -0.171229,0.787653 -0.360325,1.140534 -0.884436,1.375788 -2.39274,2.501433 -3.138703,3.929334 -0.01787,0.05063 -0.08785,0.0804 -0.119116,0.03127 l 0.150384,-0.190585 c 1.064598,-1.539573 0.111671,-3.430537 0.16974,-5.148783 z m -9.579894,0.172718 c -0.218875,0.31119 0.211431,0.290345 0.242699,0.5524 0.05062,0 0.108693,0.02084 0.14145,-0.02084 -0.03276,-0.110183 -0.01936,-0.230787 -0.120605,-0.31268 -0.172718,0 -0.172718,-0.218875 -0.263544,-0.218875 z m -14.092895,0.02829 c 0.119116,0.662582 -0.09083,1.24625 -0.192074,1.849274 -0.343947,1.155424 -0.171229,2.514833 0.504753,3.457338 -0.221853,-0.108694 -0.363303,-0.370749 -0.504753,-0.601536 -0.833811,-1.59913 -2.934717,-2.50441 -3.116369,-4.423665 -0.0089,0.69385 -0.0089,1.427902 0.201008,2.050282 0.585157,2.15153 2.957051,3.257819 4.554693,4.343262 -1.134579,-1.959456 -0.533044,-4.624673 -1.447258,-6.676444 z m 16.767047,0.08934 c -0.291834,-0.220364 -0.230787,0.201008 -0.48242,0.172718 -0.08934,-0.02084 -0.110182,-0.132516 -0.119116,-0.223342 -0.02085,0.233765 -0.199519,0.402016 -0.332035,0.585156 -0.463063,-0.131027 -0.340969,0.52411 -0.804032,0.38266 0.06105,0.181652 0.262055,-0.02829 0.361814,0.03127 0.08189,-0.04169 0.05807,-0.122094 0.09976,-0.171229 0.05062,-0.190585 0.2829,-0.262055 0.463063,-0.190585 0.101248,0.159317 0.129538,0.361814 0.120605,0.552399 -0.108694,0.0804 -0.108694,0.211431 -0.09976,0.342458 -0.14145,0.230787 -0.0804,0.723629 -0.501776,0.673005 -0.443706,-0.162295 -0.926125,-0.281411 -1.408545,-0.293323 v 0.102738 c 0.323102,0.120605 0.683428,0.120605 0.945483,0.361814 0.281411,-0.02978 0.632803,0.04169 0.844233,-0.119116 0.03127,-0.201008 0.111671,-0.382659 0.24121,-0.533043 0.180163,0.01787 0.139961,0.260566 0.220364,0.382659 0.533044,-0.675982 0.996107,-1.317719 1.177758,-2.142596 -0.262055,-0.01787 -0.45264,0.129538 -0.725118,0.08934 z m -6.463525,-0.01787 -0.966327,1.085443 c 0.552399,0.422861 1.195625,0.753408 1.911809,0.865079 -0.01042,-0.192075 -0.01042,-0.381171 0.08934,-0.533044 0.09976,-0.05956 0.251632,0.02829 0.342458,-0.06998 -0.01191,-0.09232 -0.06998,-0.09232 -0.120605,-0.172718 -0.05956,-0.139961 0,-0.2695 0.01787,-0.360326 0.0402,-0.07147 -0.07891,-0.230787 0.05211,-0.2829 -0.312679,0.151873 -0.59409,-0.05807 -0.866568,-0.150384 -0.150384,-0.120605 -0.421372,-0.150383 -0.461574,-0.38117 z m 3.116369,1.085443 c 0.120605,-0.162296 0.382659,-0.131028 0.433284,-0.31119 -0.223343,-0.0402 -0.463063,0.119116 -0.433284,0.31119 z m 0.571756,0.241209 c -0.108693,0.05807 -0.201008,0.05807 -0.259077,0.190586 -0.131028,0.171229 -0.293323,-0.0089 -0.412439,-0.07296 0.03871,0.05211 0.129539,0.172718 0.01787,0.242699 -0.131028,0.139961 -0.251633,-0.06254 -0.381171,-0.101249 -0.06998,0.440729 -0.232276,-0.122093 -0.463063,-0.01936 -0.09976,-0.251632 -0.272478,0.04913 -0.431795,0.01936 -0.120605,0.101249 -0.131027,0.391594 -0.363303,0.361815 -0.05063,0.14145 -0.24121,0.08785 -0.262055,0.190585 0.111671,0.129539 0.262055,0.06849 0.382659,0.04765 0.192075,-0.16974 0.431795,-0.05956 0.653649,-0.08934 -0.01936,0.363303 0.400527,0.08934 0.533043,0.312679 0.150384,-0.01042 0.150384,-0.162296 0.211431,-0.270989 0.31119,-0.05062 0.634292,-0.241209 0.805521,-0.483908 0.0402,-0.08934 0.09976,-0.281411 -0.03276,-0.330546 z m -5.136872,0.169741 c -0.320124,0.391593 -0.702783,0.76383 -1.083954,1.085443 h 0.06849 c 0.885924,0.765319 2.001146,1.296874 3.046388,1.468103 -0.38266,-0.04914 -0.531555,-0.422862 -0.702784,-0.702784 -0.09976,-0.233765 0.251632,-0.2829 0.190586,-0.522621 0.129538,-0.212919 0.332035,-0.332035 0.582178,-0.361814 -0.119115,0.01936 -0.242698,0.03871 -0.361814,0.06849 -0.634292,-0.208452 -1.276029,-0.492841 -1.740581,-1.033329 z m 13.853175,1.277517 -0.844234,1.1048 c -1.134578,1.569351 -1.006529,3.711948 -2.583325,5.047534 0.812966,-0.263544 1.709313,-0.372237 2.552058,-0.553888 1.899898,-0.483909 3.902533,-2.354028 4.172033,-4.303061 -0.342458,0.812966 -1.054176,1.417479 -1.779294,1.889475 -1.24476,0.583668 -2.513344,1.24625 -3.569009,2.169398 h -0.119115 l 0.06998,-0.09827 c 1.819495,-1.207537 1.326653,-3.540719 2.099417,-5.257476 z m -6.444168,0.120605 v 0.01936 c -0.753408,0.533044 0.361814,0.553889 0.384149,1.015463 -0.111671,0.221853 -0.513687,0.443706 -0.262055,0.705761 0.0804,0.08934 -0.0402,0.160807 -0.07147,0.24121 l 1.036308,-0.874013 c -0.131027,0.09083 -0.291834,0.03127 -0.361814,-0.09231 0.01191,-0.451152 -0.531555,-0.65216 -0.723629,-1.013974 z m -15.298944,0.05062 0.290345,0.742985 c 0.281412,1.669111 0.413928,3.509451 1.931166,4.563627 l -0.02233,0.02084 c -0.491353,-0.21292 -0.862101,-0.623869 -1.307297,-0.894858 -1.426412,-0.924637 -3.396291,-1.337075 -4.201812,-3.107435 0.220365,1.296874 1.106289,2.453787 2.170887,3.257819 1.277518,1.125645 3.056811,1.036308 4.61574,1.487459 -0.573245,-0.440728 -0.894858,-0.945482 -1.156913,-1.566373 -0.573245,-1.581263 -1.07651,-3.22804 -2.321271,-4.504069 z m 6.755359,0.330547 0.119116,0.150383 z m 0.16974,0.190585 c 0,0.171229 0.232276,0.180163 0.139961,0.391593 -0.342458,0.211431 -0.753408,0.06105 -1.085443,0.31268 -0.302257,0.162295 -0.5524,-0.190586 -0.725118,-0.17123 1.469592,1.265607 3.189327,2.108351 5.168139,2.200666 l 0.122094,0.07147 c -0.0804,-0.48242 -0.05062,-1.045242 -0.02085,-1.548507 -1.347498,0.0804 -2.563969,-0.482419 -3.598788,-1.256672 z m 9.873216,0.894858 c -0.220364,0.302256 -0.522621,0.583668 -0.845723,0.772764 -1.04673,0.363303 -1.145001,1.527661 -2.172375,1.91181 -0.402016,0.159317 -0.631314,-0.361815 -0.994618,-0.443707 -0.543466,0.08934 -1.106288,0.239721 -1.658688,0.148895 v 1.688467 l 0.07147,-0.04913 c 2.593748,-0.111671 4.937353,-1.137557 6.755359,-2.843891 -0.412439,-0.394572 -0.854657,-0.796588 -1.155424,-1.188181 z M 69.718514,17.076676 68.601803,18.2321 c 1.910321,1.709313 4.19139,2.63395 6.756847,2.793267 l -0.06998,-0.119116 c 0.01936,-0.503264 -0.0402,-1.036308 0.05062,-1.517238 l -0.02084,0.03127 c -2.142597,-0.05956 -4.093119,-0.854656 -5.598446,-2.342116 z m 6.122556,0.360326 0.09976,0.171229 -0.02084,1.276029 c 0.373726,-0.139962 0.884435,-0.131028 1.228382,-0.192075 -0.202497,-0.199519 -0.503264,-0.181651 -0.583667,-0.48093 -0.141451,-0.201008 0.06105,-0.412439 0.04765,-0.583668 -0.239721,-0.111671 -0.600046,0.03127 -0.771275,-0.192074 z m 8.545074,1.206048 c -1.155424,0.754897 -2.153019,2.041348 -3.207195,2.866225 -0.583667,0.442218 -1.277517,0.573246 -1.960945,0.772765 1.506816,0.111671 2.764977,0.826366 4.343262,0.725117 1.688468,-0.07147 3.235485,-1.055664 4.030583,-2.553546 -1.165846,1.3877 -3.035965,1.305808 -4.7557,1.466614 -0.571756,0.07147 -1.136068,0.24121 -1.709313,0.24121 0.02085,-0.01936 0.0402,-0.05956 0.06998,-0.05062 1.880541,-0.160807 2.413585,-2.200666 3.187838,-3.46925 z m -17.443029,0.122094 c 0.774253,0.903791 0.804032,2.099417 1.880541,2.842402 0.412439,0.363303 0.964839,0.434773 1.427902,0.625358 -0.513687,0.04914 -0.987173,-0.159317 -1.499371,-0.190585 -1.730158,-0.211431 -3.70897,0.01042 -4.976065,-1.396634 0.573245,1.005041 1.587219,1.880542 2.653306,2.221511 2.01008,0.762342 3.831064,-0.360325 5.748829,-0.533043 -2.231934,-0.101249 -3.437982,-2.532701 -5.236631,-3.569009 z m 14.475555,4.703587 c -1.718246,-0.783186 -3.70897,-1.658688 -5.71905,-0.914214 -1.015463,-0.330546 -2.342116,-0.330546 -3.357579,0 -1.770359,0.805521 -4.182456,2.020503 -6.052575,0.674494 0.352881,0.422861 0.732563,0.623869 1.136068,0.915703 1.207537,0.781698 2.946629,0.702783 4.192878,0.07147 1.145002,-0.483908 2.020503,-1.922232 3.478184,-1.469592 -1.237317,0.622381 -2.371895,1.368344 -3.396292,2.432942 l 0.622381,0.531554 c 0.902303,-1.195625 2.120262,-2.190242 3.427559,-2.77391 1.267095,0.613447 2.422519,1.669111 3.376935,2.726264 l 0.623869,-0.533043 c -1.003551,-0.975261 -2.170887,-1.761426 -3.376935,-2.383807 0.31119,-0.08189 0.69385,-0.05956 1.015463,-0.02978 1.305808,0.573246 2.310848,1.718247 3.789373,1.889476 1.567863,0.251632 2.965985,-0.38266 3.930824,-1.527661 l -0.742985,0.391593 c -0.876991,0.393083 -2.050282,0.291834 -2.946629,0 z M 178.76015,7.9836694 c 3.38289,-0.1459169 6.5886,-0.6074909 9.49503,-1.3132524 V 0.04310814 h -9.49503 V 7.9851583 Z m 19.11214,-0.4228613 c -1.67506,0.8487005 -3.53625,1.581263 -5.51655,2.2095992 V 17.103477 C 195.487,14.800075 198.09415,11.840045 200,8.4288649 V 6.3488042 c -0.67747,0.4243502 -1.38026,0.8323221 -2.12771,1.2120039 z m -9.61414,12.0366579 c 0,-0.0089 -0.003,-0.01936 -0.003,-0.0268 v -8.69248 c -2.9645,0.649181 -6.15829,1.051197 -9.49503,1.191158 v 10.200785 c 3.38289,-0.314168 6.5886,-1.237316 9.498,-2.674151 z m 4.0961,-19.55584681 V 5.4494794 c 3.1521,-1.1256449 5.77414,-2.5461015 7.64426,-4.1124752 V 0.04310814 h -7.64426 z m -18.54634,0 h -9.91639 V 6.5751243 c 3.01958,0.7563857 6.37567,1.2477387 9.91639,1.4025893 V 0.04310814 Z M 159.79095,5.3110072 V 0.04310814 H 152.5904 V 1.3370042 c 1.08246,0.9127254 2.41805,1.7837601 3.96507,2.5699248 0.99461,0.5062424 2.08006,0.9752611 3.23548,1.4040782 z m 14.01696,6.7508918 c -3.49009,-0.153362 -6.83129,-0.58069 -9.91639,-1.279007 v 8.616544 c 3.02405,1.555951 6.37418,2.549079 9.91639,2.87367 z m -14.01696,4.737833 V 9.6557583 C 157.09744,8.771323 154.6779,7.6561008 152.5904,6.3458263 v 2.129196 c 1.81651,3.2444187 4.2703,6.0763977 7.20055,8.3247097 z m 4.0559,31.305138 v -4.626163 h 9.96106 v -4.621695 h -9.96255 V 34.23085 h 9.96255 v -7.840802 c -8.46914,-0.661093 -15.98833,-4.70061 -21.219,-10.775519 v 40.515772 h 21.219 V 48.10487 Z m 14.91181,-21.713333 v 7.840801 h 9.54714 v 4.626163 h -9.54714 v 4.621695 h 9.54863 v 4.626163 h -9.54863 v 8.025431 h 21.23985 V 15.595173 c -5.23365,6.082354 -12.7588,10.129315 -21.23985,10.796364 z"
     id="path1"
     inkscape:export-filename="un-women-logo-no-tag-white-en-3.svg"
     inkscape:export-xdpi="96"
     inkscape:export-ydpi="96"
     style="stroke-width:0.148895" />
</svg>
